# xmcd
#
# Track frame offsets:
#  150
#  16818
#  31805
#  52753
#  68388
#  83713
#  98973
#  112308
#  133418
#  149160
#  169238
#
# Disc length: 2490 seconds
#
# Revision: 0
# Processed by: cddbd v1.5.1PL2 Copyright (c) Steve Scherf et al.
# Submitted via: Collectorz.com_Music_Collector 6.9
#
DISCID=9509b80b
DTITLE=Belfast - Dream Machine
DYEAR=1994
DGENRE=Hard Rock
TTITLE0=Feel The Flame
TTITLE1=Nothing Left To Do
TTITLE2=Make Up Your Mind
TTITLE3=So Hard Loving You
TTITLE4=Sink My Teeth
TTITLE5=Looking For Action
TTITLE6=Merry Go Round
TTITLE7=In Time
TTITLE8=Out For Blood
TTITLE9=Rock Child
TTITLE10=Sythena
EXTD=
EXTT0=
EXTT1=
EXTT2=
EXTT3=
EXTT4=
EXTT5=
EXTT6=
EXTT7=
EXTT8=
EXTT9=
EXTT10=
PLAYORDER=
